{
    "asset" : {
        "generator" : "Khronos glTF Blender I/O v3.3.27",
        "version" : "2.0"
    },
    "scene" : 0,
    "scenes" : [
        {
            "name" : "Scene",
            "nodes" : [
                0,
                1,
                2,
                3,
                4,
                5,
                6
            ]
        }
    ],
    "nodes" : [
        {
            "mesh" : 0,
            "name" : "Cylinder.002",
            "rotation" : [
                0.7071068286895752,
                0,
                0,
                0.7071068286895752
            ],
            "scale" : [
                1.108520269393921,
                1.0413155555725098,
                1.1621252298355103
            ],
            "translation" : [
                0,
                5.343409538269043,
                -0.012393712997436523
            ]
        },
        {
            "mesh" : 1,
            "name" : "Cylinder.005",
            "scale" : [
                0.7282661199569702,
                0.7282661199569702,
                0.7282661199569702
            ],
            "translation" : [
                0,
                3.0718183517456055,
                0
            ]
        },
        {
            "mesh" : 2,
            "name" : "hat",
            "rotation" : [
                0,
                0,
                -0.9238795042037964,
                0.38268351554870605
            ],
            "scale" : [
                0.41913482546806335,
                0.41913482546806335,
                0.41913485527038574
            ],
            "translation" : [
                0,
                6.1095147132873535,
                0
            ]
        },
        {
            "mesh" : 3,
            "name" : "eye_left.001",
            "scale" : [
                0.16242218017578125,
                0.22867338359355927,
                0.05142991244792938
            ],
            "translation" : [
                -0.15729013085365295,
                4.851284503936768,
                0.6421812176704407
            ]
        },
        {
            "mesh" : 4,
            "name" : "eye_right.001",
            "scale" : [
                0.16242218017578125,
                0.22867338359355927,
                0.05142991244792938
            ],
            "translation" : [
                0.13543209433555603,
                4.851284503936768,
                0.6421812176704407
            ]
        },
        {
            "mesh" : 5,
            "name" : "iris_left.001",
            "scale" : [
                0.06047235429286957,
                0.09750048816204071,
                0.02192840166389942
            ],
            "translation" : [
                -0.15921656787395477,
                4.851284503936768,
                0.6874060034751892
            ]
        },
        {
            "mesh" : 6,
            "name" : "iris_right.001",
            "scale" : [
                0.06047235429286957,
                0.09750048816204071,
                0.02192840166389942
            ],
            "translation" : [
                0.1335056573152542,
                4.851284503936768,
                0.6874060034751892
            ]
        }
    ],
    "animations" : [
        {
            "channels" : [
                {
                    "sampler" : 0,
                    "target" : {
                        "node" : 2,
                        "path" : "rotation"
                    }
                }
            ],
            "name" : "hatAction",
            "samplers" : [
                {
                    "input" : 25,
                    "interpolation" : "LINEAR",
                    "output" : 26
                }
            ]
        }
    ],
    "materials" : [
        {
            "doubleSided" : true,
            "name" : "809FF4",
            "pbrMetallicRoughness" : {
                "baseColorFactor" : [
                    0.07770397514104843,
                    0.14012411236763,
                    0.9046614170074463,
                    1
                ],
                "metallicFactor" : 0,
                "roughnessFactor" : 0.7704545259475708
            }
        },
        {
            "doubleSided" : true,
            "name" : "5179ED",
            "pbrMetallicRoughness" : {
                "baseColorFactor" : [
                    0.09936069697141647,
                    0.2664792239665985,
                    0.9276596307754517,
                    1
                ],
                "metallicFactor" : 0,
                "roughnessFactor" : 0.7386363744735718
            }
        },
        {
            "doubleSided" : true,
            "name" : "B8C9F9",
            "pbrMetallicRoughness" : {
                "baseColorFactor" : [
                    0.4793192446231842,
                    0.5840778946876526,
                    0.9473062753677368,
                    1
                ],
                "metallicFactor" : 0
            }
        },
        {
            "doubleSided" : true,
            "name" : "FFFFFF",
            "pbrMetallicRoughness" : {
                "baseColorFactor" : [
                    0.800000011920929,
                    0.800000011920929,
                    0.800000011920929,
                    1
                ],
                "metallicFactor" : 0
            }
        },
        {
            "doubleSided" : true,
            "name" : "000000",
            "pbrMetallicRoughness" : {
                "baseColorFactor" : [
                    0,
                    0,
                    0,
                    1
                ],
                "metallicFactor" : 0
            }
        }
    ],
    "meshes" : [
        {
            "name" : "Cylinder.004",
            "primitives" : [
                {
                    "attributes" : {
                        "POSITION" : 0,
                        "NORMAL" : 1,
                        "TEXCOORD_0" : 2
                    },
                    "indices" : 3,
                    "material" : 0
                }
            ]
        },
        {
            "name" : "Cylinder.006",
            "primitives" : [
                {
                    "attributes" : {
                        "POSITION" : 4,
                        "NORMAL" : 5,
                        "TEXCOORD_0" : 6
                    },
                    "indices" : 7,
                    "material" : 1
                }
            ]
        },
        {
            "name" : "Cube",
            "primitives" : [
                {
                    "attributes" : {
                        "POSITION" : 8,
                        "NORMAL" : 9,
                        "TEXCOORD_0" : 10
                    },
                    "indices" : 11,
                    "material" : 2
                }
            ]
        },
        {
            "name" : "Sphere.008",
            "primitives" : [
                {
                    "attributes" : {
                        "POSITION" : 12,
                        "NORMAL" : 13,
                        "TEXCOORD_0" : 14
                    },
                    "indices" : 15,
                    "material" : 3
                }
            ]
        },
        {
            "name" : "Sphere.009",
            "primitives" : [
                {
                    "attributes" : {
                        "POSITION" : 16,
                        "NORMAL" : 17,
                        "TEXCOORD_0" : 18
                    },
                    "indices" : 15,
                    "material" : 3
                }
            ]
        },
        {
            "name" : "Sphere.010",
            "primitives" : [
                {
                    "attributes" : {
                        "POSITION" : 19,
                        "NORMAL" : 20,
                        "TEXCOORD_0" : 21
                    },
                    "indices" : 15,
                    "material" : 4
                }
            ]
        },
        {
            "name" : "Sphere.011",
            "primitives" : [
                {
                    "attributes" : {
                        "POSITION" : 22,
                        "NORMAL" : 23,
                        "TEXCOORD_0" : 24
                    },
                    "indices" : 15,
                    "material" : 4
                }
            ]
        }
    ],
    "accessors" : [
        {
            "bufferView" : 0,
            "componentType" : 5126,
            "count" : 2236,
            "max" : [
                0.999189019203186,
                0.6271796226501465,
                1
            ],
            "min" : [
                -0.999189019203186,
                -0.6271796226501465,
                -0.04026595130562782
            ],
            "type" : "VEC3"
        },
        {
            "bufferView" : 1,
            "componentType" : 5126,
            "count" : 2236,
            "type" : "VEC3"
        },
        {
            "bufferView" : 2,
            "componentType" : 5126,
            "count" : 2236,
            "type" : "VEC2"
        },
        {
            "bufferView" : 3,
            "componentType" : 5123,
            "count" : 9120,
            "type" : "SCALAR"
        },
        {
            "bufferView" : 4,
            "componentType" : 5126,
            "count" : 6845,
            "max" : [
                1,
                1.5233176946640015,
                1
            ],
            "min" : [
                -1,
                -1.5233176946640015,
                -1
            ],
            "type" : "VEC3"
        },
        {
            "bufferView" : 5,
            "componentType" : 5126,
            "count" : 6845,
            "type" : "VEC3"
        },
        {
            "bufferView" : 6,
            "componentType" : 5126,
            "count" : 6845,
            "type" : "VEC2"
        },
        {
            "bufferView" : 7,
            "componentType" : 5123,
            "count" : 26436,
            "type" : "SCALAR"
        },
        {
            "bufferView" : 8,
            "componentType" : 5126,
            "count" : 188,
            "max" : [
                1,
                1,
                1
            ],
            "min" : [
                -1,
                -1,
                -1
            ],
            "type" : "VEC3"
        },
        {
            "bufferView" : 9,
            "componentType" : 5126,
            "count" : 188,
            "type" : "VEC3"
        },
        {
            "bufferView" : 10,
            "componentType" : 5126,
            "count" : 188,
            "type" : "VEC2"
        },
        {
            "bufferView" : 11,
            "componentType" : 5123,
            "count" : 900,
            "type" : "SCALAR"
        },
        {
            "bufferView" : 12,
            "componentType" : 5126,
            "count" : 1103,
            "max" : [
                0.9999998807907104,
                1,
                0.9999997615814209
            ],
            "min" : [
                -0.9999997019767761,
                -1,
                -0.9999995827674866
            ],
            "type" : "VEC3"
        },
        {
            "bufferView" : 13,
            "componentType" : 5126,
            "count" : 1103,
            "type" : "VEC3"
        },
        {
            "bufferView" : 14,
            "componentType" : 5126,
            "count" : 1103,
            "type" : "VEC2"
        },
        {
            "bufferView" : 15,
            "componentType" : 5123,
            "count" : 5760,
            "type" : "SCALAR"
        },
        {
            "bufferView" : 16,
            "componentType" : 5126,
            "count" : 1103,
            "max" : [
                0.9999998807907104,
                1,
                0.9999997615814209
            ],
            "min" : [
                -0.9999997019767761,
                -1,
                -0.9999995827674866
            ],
            "type" : "VEC3"
        },
        {
            "bufferView" : 17,
            "componentType" : 5126,
            "count" : 1103,
            "type" : "VEC3"
        },
        {
            "bufferView" : 18,
            "componentType" : 5126,
            "count" : 1103,
            "type" : "VEC2"
        },
        {
            "bufferView" : 19,
            "componentType" : 5126,
            "count" : 1103,
            "max" : [
                0.9999998807907104,
                1,
                0.9999997615814209
            ],
            "min" : [
                -0.9999997019767761,
                -1,
                -0.9999995827674866
            ],
            "type" : "VEC3"
        },
        {
            "bufferView" : 20,
            "componentType" : 5126,
            "count" : 1103,
            "type" : "VEC3"
        },
        {
            "bufferView" : 21,
            "componentType" : 5126,
            "count" : 1103,
            "type" : "VEC2"
        },
        {
            "bufferView" : 22,
            "componentType" : 5126,
            "count" : 1103,
            "max" : [
                0.9999998807907104,
                1,
                0.9999997615814209
            ],
            "min" : [
                -0.9999997019767761,
                -1,
                -0.9999995827674866
            ],
            "type" : "VEC3"
        },
        {
            "bufferView" : 23,
            "componentType" : 5126,
            "count" : 1103,
            "type" : "VEC3"
        },
        {
            "bufferView" : 24,
            "componentType" : 5126,
            "count" : 1103,
            "type" : "VEC2"
        },
        {
            "bufferView" : 25,
            "componentType" : 5126,
            "count" : 100,
            "max" : [
                4.166666666666667
            ],
            "min" : [
                0.041666666666666664
            ],
            "type" : "SCALAR"
        },
        {
            "bufferView" : 26,
            "componentType" : 5126,
            "count" : 100,
            "type" : "VEC4"
        }
    ],
    "bufferViews" : [
        {
            "buffer" : 0,
            "byteLength" : 26832,
            "byteOffset" : 0,
            "target" : 34962
        },
        {
            "buffer" : 0,
            "byteLength" : 26832,
            "byteOffset" : 26832,
            "target" : 34962
        },
        {
            "buffer" : 0,
            "byteLength" : 17888,
            "byteOffset" : 53664,
            "target" : 34962
        },
        {
            "buffer" : 0,
            "byteLength" : 18240,
            "byteOffset" : 71552,
            "target" : 34963
        },
        {
            "buffer" : 0,
            "byteLength" : 82140,
            "byteOffset" : 89792,
            "target" : 34962
        },
        {
            "buffer" : 0,
            "byteLength" : 82140,
            "byteOffset" : 171932,
            "target" : 34962
        },
        {
            "buffer" : 0,
            "byteLength" : 54760,
            "byteOffset" : 254072,
            "target" : 34962
        },
        {
            "buffer" : 0,
            "byteLength" : 52872,
            "byteOffset" : 308832,
            "target" : 34963
        },
        {
            "buffer" : 0,
            "byteLength" : 2256,
            "byteOffset" : 361704,
            "target" : 34962
        },
        {
            "buffer" : 0,
            "byteLength" : 2256,
            "byteOffset" : 363960,
            "target" : 34962
        },
        {
            "buffer" : 0,
            "byteLength" : 1504,
            "byteOffset" : 366216,
            "target" : 34962
        },
        {
            "buffer" : 0,
            "byteLength" : 1800,
            "byteOffset" : 367720,
            "target" : 34963
        },
        {
            "buffer" : 0,
            "byteLength" : 13236,
            "byteOffset" : 369520,
            "target" : 34962
        },
        {
            "buffer" : 0,
            "byteLength" : 13236,
            "byteOffset" : 382756,
            "target" : 34962
        },
        {
            "buffer" : 0,
            "byteLength" : 8824,
            "byteOffset" : 395992,
            "target" : 34962
        },
        {
            "buffer" : 0,
            "byteLength" : 11520,
            "byteOffset" : 404816,
            "target" : 34963
        },
        {
            "buffer" : 0,
            "byteLength" : 13236,
            "byteOffset" : 416336,
            "target" : 34962
        },
        {
            "buffer" : 0,
            "byteLength" : 13236,
            "byteOffset" : 429572,
            "target" : 34962
        },
        {
            "buffer" : 0,
            "byteLength" : 8824,
            "byteOffset" : 442808,
            "target" : 34962
        },
        {
            "buffer" : 0,
            "byteLength" : 13236,
            "byteOffset" : 451632,
            "target" : 34962
        },
        {
            "buffer" : 0,
            "byteLength" : 13236,
            "byteOffset" : 464868,
            "target" : 34962
        },
        {
            "buffer" : 0,
            "byteLength" : 8824,
            "byteOffset" : 478104,
            "target" : 34962
        },
        {
            "buffer" : 0,
            "byteLength" : 13236,
            "byteOffset" : 486928,
            "target" : 34962
        },
        {
            "buffer" : 0,
            "byteLength" : 13236,
            "byteOffset" : 500164,
            "target" : 34962
        },
        {
            "buffer" : 0,
            "byteLength" : 8824,
            "byteOffset" : 513400,
            "target" : 34962
        },
        {
            "buffer" : 0,
            "byteLength" : 400,
            "byteOffset" : 522224
        },
        {
            "buffer" : 0,
            "byteLength" : 1600,
            "byteOffset" : 522624
        }
    ],
    "buffers" : [
        {
            "byteLength" : 524224,
            "uri" : "data:application/octet-stream;base64,"
        }
    ]
}
